<svg class="svg-icon" style="width: 1em; height: 1em;vertical-align: middle;fill: currentColor;overflow: hidden;" viewBox="0 0 1024 1024" version="1.1" xmlns="http://www.w3.org/2000/svg"><path d="M776 932H248c-55.1 0-100-44.9-100-100V192c0-55.1 44.9-100 100-100h394.4c5.3 0 10.4 2.1 14.1 5.9l213.6 213.6c3.8 3.8 5.9 8.8 5.9 14.1V832c0 55.1-44.9 100-100 100zM248 132c-33.1 0-60 26.9-60 60v640c0 33.1 26.9 60 60 60h528c33.1 0 60-26.9 60-60V333.9L634.1 132H248z"  /><path d="M712 324H312c-6.6 0-12-5.4-12-12s5.4-12 12-12h400c6.6 0 12 5.4 12 12s-5.4 12-12 12zM712 524H312c-6.6 0-12-5.4-12-12s5.4-12 12-12h400c6.6 0 12 5.4 12 12s-5.4 12-12 12zM712 724H312c-6.6 0-12-5.4-12-12s5.4-12 12-12h400c6.6 0 12 5.4 12 12s-5.4 12-12 12z"  /><path d="M856 336H713.6c-44 0-80-36-80-80V112L856 336z"  /><path d="M865.6 340h-152c-46.3 0-84-37.7-84-84V102.3l236 237.7z m-228-218.3V256c0 41.9 34.1 76 76 76h132.8L637.6 121.7z"  /></svg>