<svg class="svg-icon" style="width: 1em;height: 1em;vertical-align: middle;fill: currentColor;overflow: hidden;" viewBox="0 0 1024 1024" version="1.1" xmlns="http://www.w3.org/2000/svg"><path d="M867.555556 327.111111H156.444444c-15.644444 0-28.444444-12.8-28.444444-28.444444s12.8-28.444444 28.444444-28.444445h711.111112c15.644444 0 28.444444 12.8 28.444444 28.444445s-12.8 28.444444-28.444444 28.444444zM611.555556 540.444444H156.444444c-15.644444 0-28.444444-12.8-28.444444-28.444444s12.8-28.444444 28.444444-28.444444h455.111112c15.644444 0 28.444444 12.8 28.444444 28.444444s-12.8 28.444444-28.444444 28.444444zM355.555556 753.777778H156.444444c-15.644444 0-28.444444-12.8-28.444444-28.444445s12.8-28.444444 28.444444-28.444444h199.111112c15.644444 0 28.444444 12.8 28.444444 28.444444s-12.8 28.444444-28.444444 28.444445z"  /></svg>