<svg width="16" height="24" viewBox="0 0 16 24" fill="none" xmlns="http://www.w3.org/2000/svg">
<path d="M13.3333 0.333344H2.66667C1.38667 0.333344 0.333332 1.38668 0.333332 2.66668V21.3333C0.333332 22.6133 1.38667 23.6667 2.66667 23.6667H13.3333C14.6133 23.6667 15.6667 22.6133 15.6667 21.3333V2.66668C15.6667 1.38668 14.6133 0.333344 13.3333 0.333344ZM13.6667 21.3333C13.6667 21.52 13.52 21.6667 13.3333 21.6667H2.66667C2.48 21.6667 2.33333 21.52 2.33333 21.3333V2.66668C2.33333 2.48001 2.48 2.33334 2.66667 2.33334H13.3333C13.52 2.33334 13.6667 2.48001 13.6667 2.66668V21.3333ZM9.33333 17.3333C9.33333 18.0667 8.73333 18.6667 8 18.6667C7.26666 18.6667 6.66667 18.0667 6.66667 17.3333C6.66667 16.6 7.26666 16 8 16C8.73333 16 9.33333 16.6 9.33333 17.3333Z" fill="#3766FE"/>
</svg>
