<svg class="svg-icon" style="width: 1.0009765625em;height: 1em;vertical-align: middle;fill: currentColor;overflow: hidden;" viewBox="0 0 1025 1024" version="1.1" xmlns="http://www.w3.org/2000/svg"><path d="M254.401252 745.6H520.801252a328 328 0 0 0 40 54.4H254.401252v-53.6z m0-84.8h231.2a358.4 358.4 0 0 1-10.4-53.6H254.401252v53.6z m0-137.6h221.6c2.4-18.4 5.6-36.8 10.4-53.6h-232v53.6z m431.2 358.4v46.4c0 22.4-16.8 40.8-37.6 40.8h-560c-20.8 0-37.6-18.4-37.6-40V249.6l185.6-168v178.4H138.401252v52.8h147.2V53.6h362.4c20.8 0 37.6 18.4 37.6 40v160c16-4.8 32-8 48.8-11.2V94.4C734.401252 42.4 696.801252 0 648.801252 0H249.601252L0.801252 224.8v704c0 51.2 39.2 93.6 86.4 93.6H648.801252c48 0 86.4-42.4 86.4-94.4v-35.2c-16-2.4-32.8-5.6-48.8-11.2zM187.201252 469.6h-64v53.6h64v-53.6z m-64 329.6h64v-53.6h-64v53.6z m64-192h-64v53.6h64V608zM904.801252 488l-39.2-32-99.2 140-89.6-74.4-30.4 42.4 128 107.2 130.4-184z m120 80c0-148.8-112-269.6-248.8-269.6-137.6 0-249.6 121.6-249.6 270.4 0 148.8 112 270.4 249.6 270.4C912.801252 838.4 1024.801252 716.8 1024.801252 568z m-49.6 0c0 120-89.6 217.6-200 217.6-109.6 0-200-97.6-200-216.8 0-120 90.4-216.8 200-216.8 110.4 0 200 96.8 200 216z"  /></svg>