<svg class="svg-icon" style="width: 1em; height: 1em;vertical-align: middle;fill: currentColor;overflow: hidden;" viewBox="0 0 1024 1024" version="1.1" xmlns="http://www.w3.org/2000/svg"><path d="M612.359714 620.245151C371.370401 496.075505 371.458401 195.350363 371.488401 36.096817v-6.121982A30.007914 30.007914 0 0 0 351.720457 1.772915c-11.831966-4.245988-25.155928-0.703998-33.269905 8.989974L191.660913 162.926455l-0.101999 0.12L64.665276 10.764889C56.553299 1.070917 43.227337-2.471073 31.39537 1.774915a30.007914 30.007914 0 0 0-19.765943 28.20192c0 419.544804 266.233241 695.142018 529.186491 746.333871 1.933994 0.379999 3.865989 0.555998 5.769983 0.555999 14.05596 0 26.619924-9.927972 29.401917-24.247931l16.999951-31.72791 32.287908-60.257828c7.583978-14.733958 1.815995-32.801906-12.915963-40.387885z" fill="#FEDB41" /><path d="M191.660913 162.926455l-0.101999 0.12L64.665276 10.764889C56.553299 1.070917 43.227337-2.471073 31.39537 1.774915a30.007914 30.007914 0 0 0-19.765943 28.20192c0 419.544804 266.233241 695.142018 529.186491 746.333871 1.933994 0.379999 3.865989 0.555998 5.769983 0.555999 14.05596 0 26.619924-9.927972 29.401917-24.247931l16.999951-31.72791C405.478304 637.575102 237.176784 439.911666 191.660913 162.926455z" fill="#FFCC33" /><path d="M1003.334599 790.092667l-114.557673-111.557682 26.989923-157.137552c2.401993-11.395968-2.397993-22.791935-11.995966-29.387916-8.993974-6.597981-20.98994-7.795978-31.185911-2.397993L731.639374 563.981312l-141.543597-74.371788c-10.193971-5.399985-22.191937-4.197988-31.785909 2.397993-8.997974 6.597981-13.795961 17.993949-11.395968 29.387916l26.987923 157.137552-114.553673 111.557682c-7.795978 7.793978-10.795969 19.789944-7.795978 30.583913 3.59799 10.795969 13.195962 18.591947 24.58793 20.393942l157.73755 22.791935 70.775799 143.343591c4.795986 10.193971 14.993957 16.791952 26.987923 16.791952 11.395968 0 21.593938-6.597981 26.389924-16.791952l70.771799-143.343591 157.73755-22.791935c11.395968-1.801995 20.99394-9.597973 24.59193-20.393942 2.997991-10.791969 0.599998-22.785935-7.797978-30.581913z" fill="#FEA832" /><path d="M1011.132577 820.67858c-3.59799 10.795969-13.195962 18.591947-24.59193 20.393942l-157.73755 22.791935-70.771799 143.343591c-4.795986 10.193971-14.993957 16.791952-26.389924 16.791952-11.993966 0-22.191937-6.597981-26.987923-16.791952l-70.775799-143.343591 269.895231-371.85494c9.597973 6.597981 14.397959 17.993949 11.995966 29.387916l-26.989923 157.137552 114.557673 111.557682c8.395976 7.795978 10.793969 19.789944 7.795978 30.585913z" fill="#FE9923" /><path d="M941.250776 394.107796m-29.987915 0a29.987914 29.987914 0 1 0 59.975829 0 29.987914 29.987914 0 1 0-59.975829 0Z" fill="#FEA832" /><path d="M821.299118 154.20248m-29.987914 0a29.987914 29.987914 0 1 0 59.975829 0 29.987914 29.987914 0 1 0-59.975829 0Z" fill="#FEA832" /><path d="M792.817199 331.871974c0 16.791952-13.191962 29.987914-29.987914 29.987914h-29.987915v29.987915c0 16.791952-13.191962 29.987914-29.987914 29.987914s-29.987914-13.195962-29.987915-29.987914V361.861888h-29.987914c-16.795952 0-29.987914-13.195962-29.987915-29.987914 0-16.795952 13.191962-29.987914 29.987915-29.987915h29.987914v-29.987914c0-16.795952 13.191962-29.987914 29.987915-29.987915s29.987914 13.191962 29.987914 29.987915v29.987914h29.987915c16.795952-0.002 29.987914 13.191962 29.987914 29.985915z" fill="#FEA832" /><path d="M792.817199 331.871974c0 16.791952-13.191962 29.987914-29.987914 29.987914h-29.987915v29.987915c0 16.791952-13.191962 29.987914-29.987914 29.987914v-179.929487c16.795952 0 29.987914 13.191962 29.987914 29.987915v29.987914h29.987915c16.795952 0.002 29.987914 13.195962 29.987914 29.989915z" fill="#FE9923" /><path d="M372.982396 871.660434c0 16.791952-13.191962 29.987914-29.987914 29.987915h-29.987915v29.987914c0 16.791952-13.191962 29.987914-29.987914 29.987915s-29.987914-13.195962-29.987915-29.987915v-29.987914H223.040824c-16.795952 0-29.987914-13.195962-29.987915-29.987915 0-16.795952 13.191962-29.987914 29.987915-29.987914h29.987914v-29.987915c0-16.795952 13.191962-29.987914 29.987915-29.987914s29.987914 13.191962 29.987914 29.987914v29.987915h29.987915c16.795952 0 29.989914 13.193962 29.989914 29.987914z" fill="#FEA832" /><path d="M372.982396 871.660434c0 16.791952-13.191962 29.987914-29.987914 29.987915h-29.987915v29.987914c0 16.791952-13.191962 29.987914-29.987914 29.987915v-179.929487c16.795952 0 29.987914 13.191962 29.987914 29.987914v29.987915h29.987915c16.793952 0.002 29.987914 13.195962 29.987914 29.989914z" fill="#FE9923" /></svg>